<svg width="553" height="644" viewBox="0 0 553 644" fill="none" xmlns="http://www.w3.org/2000/svg">
<rect width="553" height="644" fill="#030303"/>
<path d="M351.049 222.609C351.049 222.961 351 223.225 350.902 223.4C350.805 223.57 350.665 223.654 350.482 223.654H339.369C338.985 223.654 338.793 223.306 338.793 222.609V222.004C338.793 221.646 338.842 221.385 338.939 221.223C339.037 221.053 339.18 220.969 339.369 220.969H350.482C350.86 220.969 351.049 221.314 351.049 222.004V222.609ZM351.029 215.6C351.029 216.296 350.847 216.645 350.482 216.645H339.535C339.294 216.645 339.122 216.589 339.018 216.479C338.907 216.368 338.852 216.192 338.852 215.951V212.299C338.852 211.218 339.115 210.261 339.643 209.428C340.17 208.594 341.173 208.178 342.65 208.178C343.666 208.178 344.457 208.419 345.023 208.9C345.583 209.382 345.961 209.926 346.156 210.531C346.352 211.13 346.449 211.664 346.449 212.133V213.969H350.482C350.847 213.969 351.029 214.317 351.029 215.014V215.6ZM344.154 212.426C344.154 212.009 344.044 211.654 343.822 211.361C343.601 211.062 343.21 210.912 342.65 210.912C342.084 210.912 341.687 211.062 341.459 211.361C341.231 211.661 341.117 212.016 341.117 212.426V213.969H344.154V212.426ZM351.146 201.48C351.146 202.301 351.065 203.023 350.902 203.648C350.733 204.267 350.528 204.742 350.287 205.074C350.046 205.4 349.818 205.562 349.604 205.562C349.434 205.562 349.226 205.501 348.979 205.377C348.731 205.247 348.52 205.094 348.344 204.918C348.161 204.742 348.07 204.596 348.07 204.479C348.07 204.407 348.132 204.254 348.256 204.02C348.438 203.668 348.585 203.336 348.695 203.023C348.806 202.704 348.861 202.34 348.861 201.93C348.861 201.474 348.773 201.09 348.598 200.777C348.415 200.458 348.1 200.299 347.65 200.299C347.39 200.299 347.165 200.38 346.977 200.543C346.788 200.706 346.628 200.914 346.498 201.168C346.368 201.422 346.215 201.767 346.039 202.203L345.707 202.975C345.479 203.443 345.229 203.847 344.955 204.186C344.682 204.518 344.32 204.791 343.871 205.006C343.422 205.214 342.872 205.318 342.221 205.318C341.426 205.318 340.766 205.123 340.238 204.732C339.711 204.342 339.324 203.834 339.076 203.209C338.829 202.584 338.705 201.913 338.705 201.197C338.705 200.611 338.767 200.081 338.891 199.605C339.008 199.13 339.161 198.759 339.35 198.492C339.538 198.219 339.727 198.082 339.916 198.082C340.072 198.082 340.274 198.134 340.521 198.238C340.762 198.336 340.974 198.46 341.156 198.609C341.339 198.759 341.43 198.899 341.43 199.029C341.43 199.088 341.397 199.192 341.332 199.342C341.234 199.583 341.156 199.827 341.098 200.074C341.033 200.315 341 200.611 341 200.963C341 201.568 341.098 201.988 341.293 202.223C341.482 202.457 341.706 202.574 341.967 202.574C342.266 202.574 342.517 202.496 342.719 202.34C342.921 202.177 343.087 201.975 343.217 201.734C343.347 201.487 343.497 201.145 343.666 200.709C343.946 200.051 344.213 199.514 344.467 199.098C344.714 198.681 345.072 198.323 345.541 198.023C346.01 197.717 346.609 197.564 347.338 197.564C348.23 197.564 348.962 197.753 349.535 198.131C350.102 198.502 350.512 198.984 350.766 199.576C351.02 200.162 351.146 200.797 351.146 201.48Z" fill="#920909"/>
<rect x="70" y="115" width="414" height="414" rx="207" stroke="url(#paint0_linear_435_12)" stroke-width="6"/>
<path d="M106.571 338.081C104.656 338.081 103.698 337.579 103.698 336.577V306.472C103.698 305.809 103.85 305.335 104.154 305.048C104.459 304.744 104.942 304.592 105.604 304.592H115.648C118.62 304.592 121.252 305.317 123.544 306.767C125.836 308.217 126.981 310.974 126.981 315.039C126.981 317.832 126.319 320.007 124.994 321.564C123.669 323.104 122.174 324.143 120.509 324.68C118.862 325.217 117.394 325.485 116.105 325.485H111.056V336.577C111.056 337.579 110.098 338.081 108.183 338.081H106.571ZM115.299 319.174C116.445 319.174 117.421 318.87 118.227 318.261C119.05 317.653 119.462 316.578 119.462 315.039C119.462 313.481 119.05 312.389 118.227 311.762C117.403 311.136 116.427 310.822 115.299 310.822H111.056V319.174H115.299ZM139.303 338.081C137.387 338.081 136.429 337.579 136.429 336.577V306.472C136.429 305.809 136.581 305.335 136.886 305.048C137.19 304.744 137.674 304.592 138.336 304.592H147.655C155.568 304.592 159.525 307.573 159.525 313.535C159.525 315.343 159.015 316.901 157.994 318.208C156.992 319.514 155.64 320.49 153.939 321.135V321.323C154.53 321.573 155.147 322.111 155.792 322.934C156.454 323.758 156.983 324.689 157.376 325.727L161.593 336.228C161.736 336.657 161.808 336.962 161.808 337.141C161.808 337.767 160.859 338.081 158.961 338.081H157C155.407 338.081 154.485 337.749 154.234 337.087L150.448 327.768C150.09 327.052 149.741 326.497 149.4 326.103C149.078 325.709 148.622 325.414 148.031 325.217C147.44 325.002 146.643 324.895 145.641 324.895H143.788V336.577C143.788 337.579 142.83 338.081 140.914 338.081H139.303ZM148.299 318.557C148.944 318.557 149.553 318.378 150.125 318.02C150.698 317.644 151.155 317.142 151.495 316.516C151.835 315.889 152.005 315.2 152.005 314.448C152.005 313.338 151.638 312.46 150.904 311.816C150.188 311.153 149.212 310.822 147.977 310.822H143.788V318.557H148.299ZM173.672 338.134C172.706 338.134 171.98 338 171.497 337.731C171.032 337.463 170.799 337.078 170.799 336.577V306.015C170.799 304.959 171.757 304.431 173.672 304.431H175.337C176.322 304.431 177.038 304.565 177.486 304.833C177.951 305.102 178.184 305.496 178.184 306.015V336.577C178.184 337.615 177.235 338.134 175.337 338.134H173.672ZM192.949 338.081C191.034 338.081 190.076 337.579 190.076 336.577V306.015C190.076 305.496 190.308 305.111 190.774 304.86C191.239 304.592 191.965 304.458 192.949 304.458H195.474C196.995 304.458 197.989 304.896 198.455 305.773L206.484 320.034L206.887 320.732L207.29 319.899L215.374 305.773C215.857 304.896 216.86 304.458 218.381 304.458H220.879C222.795 304.458 223.752 304.977 223.752 306.015V336.577C223.752 337.579 222.795 338.081 220.879 338.081H219.482C217.567 338.081 216.609 337.579 216.609 336.577V316.784L216.421 316.73L209.492 329.111C209.08 329.72 208.445 330.024 207.585 330.024H206.216C205.768 330.024 205.392 329.952 205.088 329.809C204.784 329.648 204.524 329.415 204.309 329.111L197.354 316.73L197.166 316.784V336.577C197.166 337.579 196.217 338.081 194.319 338.081H192.949ZM237.712 338C237.049 338 236.566 337.848 236.262 337.543C235.957 337.239 235.805 336.756 235.805 336.093V306.472C235.805 305.809 235.957 305.335 236.262 305.048C236.566 304.744 237.049 304.592 237.712 304.592H255.195C255.696 304.592 256.054 304.78 256.269 305.156C256.502 305.532 256.618 306.14 256.618 306.982V308.432C256.618 309.274 256.502 309.882 256.269 310.258C256.054 310.634 255.696 310.822 255.195 310.822H243.164V317.751H253.906C254.407 317.751 254.765 317.939 254.98 318.315C255.213 318.691 255.329 319.3 255.329 320.141V321.618C255.329 322.46 255.213 323.068 254.98 323.444C254.765 323.82 254.407 324.008 253.906 324.008H243.164V331.743H255.222C255.723 331.743 256.081 331.931 256.296 332.307C256.529 332.683 256.645 333.282 256.645 334.106V335.61C256.645 336.451 256.529 337.06 256.296 337.436C256.081 337.812 255.723 338 255.222 338H237.712Z" fill="#920909"/>
<path d="M104.516 298C104.424 298 104.33 297.893 104.232 297.678C104.141 297.456 104.096 297.258 104.096 297.082C104.096 296.991 104.112 296.919 104.145 296.867L111.264 287.17H105.014C104.89 287.17 104.799 287.124 104.74 287.033C104.688 286.936 104.662 286.783 104.662 286.574V286.438C104.662 286.229 104.688 286.079 104.74 285.988C104.799 285.897 104.89 285.852 105.014 285.852H112.963C113.002 285.852 113.051 285.904 113.109 286.008C113.174 286.112 113.23 286.236 113.275 286.379C113.321 286.522 113.344 286.652 113.344 286.77C113.344 286.854 113.327 286.923 113.295 286.975L106.176 296.682H112.963C113.087 296.682 113.174 296.727 113.227 296.818C113.285 296.91 113.314 297.059 113.314 297.268V297.404C113.314 297.613 113.285 297.766 113.227 297.863C113.174 297.954 113.087 298 112.963 298H104.516ZM118.342 286.73C117.88 286.73 117.648 286.604 117.648 286.35V285.324C117.648 285.07 117.88 284.943 118.342 284.943H118.547C119.016 284.943 119.25 285.07 119.25 285.324V286.35C119.25 286.604 119.016 286.73 118.547 286.73H118.342ZM118.41 298.029C117.948 298.029 117.717 297.902 117.717 297.648V289.27C117.717 289.016 117.948 288.889 118.41 288.889H118.479C118.947 288.889 119.182 289.016 119.182 289.27V297.648C119.182 297.902 118.947 298.029 118.479 298.029H118.41ZM125.01 298.029C124.762 298.029 124.583 298 124.473 297.941C124.362 297.876 124.307 297.779 124.307 297.648V291.555C124.307 290.799 124.271 290.256 124.199 289.924C124.128 289.585 124.092 289.4 124.092 289.367C124.092 289.224 124.199 289.123 124.414 289.064C124.635 288.999 124.844 288.967 125.039 288.967C125.195 288.967 125.312 289.051 125.391 289.221C125.469 289.383 125.537 289.615 125.596 289.914L125.645 290.119C126.263 289.253 126.934 288.82 127.656 288.82C127.988 288.82 128.239 288.882 128.408 289.006C128.577 289.123 128.662 289.283 128.662 289.484C128.662 289.68 128.626 289.888 128.555 290.109C128.49 290.324 128.411 290.432 128.32 290.432C128.275 290.432 128.193 290.412 128.076 290.373C127.972 290.327 127.868 290.295 127.764 290.275C127.66 290.249 127.526 290.236 127.363 290.236C127.096 290.236 126.842 290.314 126.602 290.471C126.367 290.627 126.169 290.799 126.006 290.988C125.843 291.177 125.762 291.281 125.762 291.301V297.648C125.762 297.779 125.706 297.876 125.596 297.941C125.485 298 125.312 298.029 125.078 298.029H125.01ZM137.674 298.098C135.773 298.098 134.367 297.596 133.455 296.594C132.544 295.591 132.088 294.032 132.088 291.916C132.088 287.795 133.96 285.734 137.703 285.734C138.25 285.734 138.781 285.793 139.295 285.91C139.809 286.021 140.226 286.161 140.545 286.33C140.864 286.499 141.023 286.662 141.023 286.818C141.023 286.916 140.988 287.046 140.916 287.209C140.851 287.372 140.773 287.515 140.682 287.639C140.59 287.762 140.509 287.824 140.438 287.824C140.405 287.824 140.314 287.782 140.164 287.697C139.826 287.515 139.471 287.362 139.1 287.238C138.729 287.115 138.276 287.053 137.742 287.053C136.342 287.053 135.311 287.443 134.646 288.225C133.989 288.999 133.66 290.236 133.66 291.936C133.66 293.596 133.986 294.82 134.637 295.607C135.294 296.389 136.307 296.779 137.674 296.779C138.247 296.779 138.738 296.711 139.148 296.574C139.559 296.438 139.952 296.268 140.33 296.066C140.512 295.969 140.623 295.92 140.662 295.92C140.734 295.92 140.815 295.982 140.906 296.105C141.004 296.229 141.089 296.369 141.16 296.525C141.232 296.675 141.268 296.783 141.268 296.848C141.268 297.01 141.102 297.193 140.77 297.395C140.444 297.59 140.005 297.756 139.451 297.893C138.904 298.029 138.312 298.098 137.674 298.098ZM144.811 298.029C144.55 298.029 144.361 298.007 144.244 297.961C144.127 297.909 144.068 297.834 144.068 297.736C144.068 297.691 144.085 297.613 144.117 297.502L148.229 286.086C148.294 285.897 148.525 285.803 148.922 285.803H149.43C149.827 285.803 150.058 285.897 150.123 286.086L154.234 297.512C154.267 297.583 154.283 297.658 154.283 297.736C154.283 297.932 154.039 298.029 153.551 298.029H153.404C153.001 298.029 152.766 297.938 152.701 297.756L151.686 294.904H146.588L145.592 297.756C145.533 297.938 145.302 298.029 144.898 298.029H144.811ZM151.217 293.586L149.4 288.42C149.348 288.277 149.306 288.114 149.273 287.932C149.241 287.749 149.212 287.574 149.186 287.404H149.146C149.068 287.84 148.98 288.179 148.883 288.42L147.066 293.586H151.217ZM158.705 298C158.523 298 158.389 297.958 158.305 297.873C158.22 297.788 158.178 297.658 158.178 297.482V286.369C158.178 286.187 158.22 286.057 158.305 285.979C158.389 285.894 158.523 285.852 158.705 285.852H162.211C163.839 285.852 165.141 286.333 166.117 287.297C167.094 288.26 167.582 289.8 167.582 291.916C167.582 294.045 167.094 295.591 166.117 296.555C165.141 297.518 163.839 298 162.211 298H158.705ZM162.094 296.682C163.266 296.682 164.21 296.301 164.926 295.539C165.642 294.771 166 293.563 166 291.916C166 290.809 165.831 289.904 165.492 289.201C165.154 288.492 164.691 287.977 164.105 287.658C163.52 287.333 162.849 287.17 162.094 287.17H159.711V296.682H162.094Z" fill="white"/>
<path d="M366.348 225.366C362.539 225.366 359.699 224.349 357.827 222.314C355.955 220.264 355.02 217.424 355.02 213.794C355.02 209.709 355.955 206.714 357.827 204.81C359.699 202.905 362.279 201.953 365.566 201.953C367.747 201.953 369.53 202.45 370.913 203.442C372.313 204.435 373.33 205.77 373.965 207.446C374.616 209.123 374.941 211.019 374.941 213.135C374.941 213.379 374.795 213.704 374.502 214.111C374.225 214.518 373.908 214.884 373.55 215.21C373.192 215.535 372.915 215.698 372.72 215.698H361.66C361.807 217.358 362.295 218.538 363.125 219.238C363.971 219.922 365.143 220.264 366.641 220.264C367.454 220.264 368.187 220.174 368.838 219.995C369.505 219.8 370.213 219.548 370.962 219.238C371.418 219.027 371.727 218.921 371.89 218.921C372.183 218.921 372.5 219.132 372.842 219.556C373.2 219.963 373.501 220.435 373.745 220.972C374.006 221.509 374.136 221.924 374.136 222.217C374.136 222.884 373.68 223.454 372.769 223.926C371.873 224.398 370.807 224.756 369.57 225C368.35 225.244 367.275 225.366 366.348 225.366ZM368.691 211.426C368.691 210.091 368.431 209.025 367.91 208.228C367.389 207.414 366.608 207.007 365.566 207.007C363.418 207.007 362.116 208.48 361.66 211.426H368.691ZM385.19 225.073C383.449 225.073 382.578 224.618 382.578 223.706V219.702C382.578 218.774 383.449 218.311 385.19 218.311H386.582C387.477 218.311 388.128 218.433 388.535 218.677C388.958 218.905 389.17 219.246 389.17 219.702V223.706C389.17 224.618 388.307 225.073 386.582 225.073H385.19ZM422.881 201.953C425.046 201.953 426.641 202.523 427.666 203.662C428.708 204.801 429.229 206.567 429.229 208.96V223.706C429.229 224.618 428.35 225.073 426.592 225.073H425.396C423.67 225.073 422.808 224.618 422.808 223.706V209.937C422.808 209.058 422.604 208.39 422.197 207.935C421.807 207.479 421.147 207.251 420.22 207.251C419.406 207.251 418.714 207.503 418.145 208.008C417.591 208.496 417.144 209.066 416.802 209.717V223.706C416.802 224.618 415.931 225.073 414.189 225.073H412.969C411.243 225.073 410.381 224.618 410.381 223.706V209.937C410.381 209.058 410.177 208.39 409.771 207.935C409.38 207.479 408.729 207.251 407.817 207.251C407.036 207.251 406.344 207.511 405.742 208.032C405.156 208.553 404.709 209.131 404.399 209.766V223.706C404.399 224.618 403.521 225.073 401.763 225.073H400.566C398.841 225.073 397.979 224.618 397.979 223.706V209.937C397.979 207.853 397.84 206.12 397.563 204.736C397.482 204.297 397.441 203.988 397.441 203.809C397.441 203.483 397.743 203.223 398.345 203.027C398.963 202.816 399.655 202.661 400.42 202.563C401.201 202.466 401.828 202.417 402.3 202.417C402.804 202.417 403.154 202.604 403.35 202.979C403.561 203.353 403.748 203.898 403.911 204.614L404.058 205.249C404.741 204.321 405.653 203.54 406.792 202.905C407.931 202.271 409.16 201.953 410.479 201.953C411.976 201.953 413.188 202.222 414.116 202.759C415.06 203.296 415.752 204.126 416.191 205.249C416.924 204.321 417.884 203.54 419.072 202.905C420.26 202.271 421.53 201.953 422.881 201.953ZM445.337 225.366C443.123 225.366 441.496 224.788 440.454 223.633C439.429 222.461 438.916 220.915 438.916 218.994C438.916 217.546 439.217 216.243 439.819 215.088C440.422 213.916 441.642 212.931 443.481 212.134C445.321 211.336 447.949 210.938 451.367 210.938V209.497C451.367 208.651 451.099 208.024 450.562 207.617C450.024 207.21 449.17 207.007 447.998 207.007C447.021 207.007 446.183 207.113 445.483 207.324C444.784 207.52 444.027 207.788 443.213 208.13C442.79 208.325 442.529 208.423 442.432 208.423C442.139 208.423 441.813 208.203 441.455 207.764C441.113 207.324 440.812 206.82 440.552 206.25C440.291 205.68 440.161 205.249 440.161 204.956C440.161 204.451 440.519 203.971 441.235 203.516C441.968 203.044 442.969 202.669 444.238 202.393C445.508 202.1 446.916 201.953 448.462 201.953C451.717 201.953 454.085 202.604 455.566 203.906C457.048 205.192 457.788 206.958 457.788 209.204V217.334C457.788 218.685 457.821 219.735 457.886 220.483C457.967 221.232 458.073 221.973 458.203 222.705C458.285 223.145 458.325 223.454 458.325 223.633C458.325 223.958 458.016 224.227 457.397 224.438C456.795 224.65 456.104 224.805 455.322 224.902C454.541 225 453.914 225.049 453.442 225.049C452.938 225.049 452.572 224.837 452.344 224.414C452.132 223.975 451.961 223.381 451.831 222.632C451.815 222.534 451.799 222.437 451.782 222.339C451.766 222.241 451.742 222.144 451.709 222.046C451.546 222.355 451.196 222.77 450.659 223.291C450.138 223.812 449.422 224.292 448.511 224.731C447.599 225.155 446.541 225.366 445.337 225.366ZM447.461 220.264C448.275 220.264 449.04 220.011 449.756 219.507C450.472 218.986 451.009 218.327 451.367 217.529V215.137C447.314 215.137 445.288 216.203 445.288 218.335C445.288 218.905 445.475 219.368 445.85 219.727C446.24 220.085 446.777 220.264 447.461 220.264ZM468.721 225.073C466.898 225.073 465.986 224.813 465.986 224.292C465.986 224.178 466.035 224.032 466.133 223.853C466.23 223.657 466.344 223.446 466.475 223.218L473.018 213.501L466.841 204.126C466.532 203.605 466.377 203.231 466.377 203.003C466.377 202.482 467.288 202.222 469.111 202.222H470.503C471.268 202.222 471.846 202.271 472.236 202.368C472.627 202.466 472.928 202.694 473.14 203.052L475.801 207.324L476.436 208.374L477.192 207.251L479.878 203.052C480.09 202.694 480.391 202.466 480.781 202.368C481.172 202.271 481.75 202.222 482.515 202.222H483.784C485.607 202.222 486.519 202.482 486.519 203.003C486.519 203.198 486.364 203.556 486.055 204.077L479.707 213.452L486.128 223.169C486.437 223.657 486.592 224.032 486.592 224.292C486.592 224.813 485.688 225.073 483.882 225.073H482.466C481.717 225.073 481.147 225.024 480.757 224.927C480.366 224.829 480.057 224.601 479.829 224.243L476.851 219.482C476.785 219.368 476.688 219.222 476.558 219.043C476.444 218.864 476.346 218.709 476.265 218.579C476.2 218.677 476.11 218.823 475.996 219.019C475.882 219.198 475.793 219.352 475.728 219.482L472.676 224.243C472.448 224.601 472.139 224.829 471.748 224.927C471.357 225.024 470.78 225.073 470.015 225.073H468.721Z" fill="white"/>
<path d="M281.922 336.132C278.729 336.132 277.132 335.561 277.132 334.418C277.132 334.096 277.234 333.627 277.439 333.012L294.666 282.782C295.076 281.669 296.556 281.112 299.104 281.112H303.147C305.696 281.112 307.176 281.669 307.586 282.782L324.812 333.012C324.959 333.598 325.032 334.066 325.032 334.418C325.032 335.004 324.71 335.443 324.065 335.736C323.45 336 322.469 336.132 321.121 336.132H317.693C316.463 336.132 315.467 336.015 314.705 335.78C313.973 335.517 313.519 335.092 313.343 334.506L310.179 324.97H291.766L288.602 334.506C288.279 335.59 287.078 336.132 284.998 336.132H281.922ZM306.839 314.643L302.4 300.756C302.137 300.053 301.902 299.247 301.697 298.339C301.521 297.431 301.36 296.566 301.214 295.746H300.906L300.73 296.713C300.438 298.441 300.101 299.789 299.72 300.756L295.105 314.643H306.839ZM338.822 336C338.266 336 337.753 335.18 337.284 333.539C336.845 331.898 336.625 330.419 336.625 329.101C336.625 328.603 336.698 328.207 336.845 327.914L356.62 303.744C358.612 301.254 359.608 298.749 359.608 296.229C359.608 294.208 358.935 292.655 357.587 291.571C356.239 290.458 354.481 289.901 352.313 289.901C350.878 289.901 349.604 290.121 348.49 290.561C347.406 291 346.293 291.586 345.15 292.318C344.77 292.582 344.403 292.802 344.052 292.978C343.7 293.153 343.407 293.241 343.173 293.241C342.411 293.241 341.679 292.948 340.976 292.362C340.302 291.776 339.76 291.059 339.35 290.209C338.939 289.359 338.734 288.583 338.734 287.88C338.734 286.415 339.496 285.141 341.02 284.057C342.543 282.943 344.491 282.108 346.864 281.552C349.267 280.966 351.742 280.673 354.291 280.673C357.865 280.673 360.927 281.332 363.476 282.65C366.054 283.939 368.002 285.741 369.32 288.056C370.639 290.341 371.298 292.978 371.298 295.966C371.298 298.368 370.873 300.639 370.023 302.777C369.203 304.916 368.046 306.894 366.552 308.71L351.874 326.859H369.892C370.712 326.859 371.312 327.182 371.693 327.826C372.074 328.441 372.265 329.423 372.265 330.771V332.089C372.265 333.437 372.074 334.433 371.693 335.077C371.312 335.692 370.712 336 369.892 336H338.822Z" fill="white"/>
<defs>
<linearGradient id="paint0_linear_435_12" x1="67" y1="112" x2="487" y2="532" gradientUnits="userSpaceOnUse">
<stop stop-color="#FF0000"/>
<stop offset="0.836201" stop-color="#501B1B" stop-opacity="0"/>
</linearGradient>
</defs>
</svg>
